<svg xmlns="http://www.w3.org/2000/svg" version="1.1" viewBox="-5.0 -10.0 110.0 135.0">
 <path d="m71.352 33.785 13.328-13.328c3.4141-3.4141-1.7539-8.5742-5.1641-5.1641l-13.328 13.328c-19.48-18.098-42.238-24.543-52.164-14.625-9.918 9.9258-3.4727 32.688 14.625 52.16l-13.004 13.004c-2.2891 2.2891-0.66797 6.2305 2.5859 6.2305 0.9375 0 1.8711-0.35547 2.5781-1.0664l13-13c15.551 14.445 40.551 26.227 52.164 14.621 9.918-9.9258 3.4727-32.684-14.625-52.16zm9.8867-16.773c1.1445-1.1406 2.8555 0.58984 1.7227 1.7227-3.2266 3.2266-14.105 14.105-36.305 36.305-0.011719-0.007812-0.023438-0.019531-0.03125-0.027343-0.55078-0.5-1.1289-1.0742-1.6641-1.6641-0.007813-0.007812-0.015626-0.019531-0.027344-0.03125l36.305-36.305zm-10.594 53.605c-6.8594 6.8594-22.094-1.0664-31.16-10.129-9.5938-9.5938-16.695-24.594-10.129-31.16 6.6992-6.6992 21.211 1.2422 28.445 7.5938 0.015625 0.011719 0.03125 0.027344 0.042969 0.039063l-4.6562 4.6562c-3.9297-2.9805-10.195-5.5938-13.664-2.1211-4.1133 4.1133 0.058593 12.008 4.5234 16.418 4.6367 4.6953 13.496 9.0547 17.059 3.75 2.4648-3.6719-0.015625-9.2305-2.6836-12.789-0.023437-0.03125-0.042969-0.0625-0.066406-0.09375l4.6562-4.6562c0.007812 0.007812 0.015625 0.019531 0.027343 0.027344 6.4648 7.3633 14.438 21.633 7.6094 28.461zm-14.035-22.09c1.8359 2.5195 4.2031 7.2461 2.4609 9.8125-1.9688 2.8984-7.6641 0.31641-10.512-1.7617l8.0547-8.0547zm-15.363-7.3125c2.2734-2.2734 7.4023 0.10938 10.199 2.1445l-8.0547 8.0547c-1.9492-2.6758-4.4688-7.8711-2.1445-10.199zm-22.156 41.387c-1.1406 1.1406-2.8555-0.58594-1.7227-1.7227l12.953-12.953c0.56641 0.58203 1.1523 1.168 1.7227 1.7227zm65.164 1.6211c-12.129 12.125-39.027-4.8203-51.359-17.148-12.539-12.535-29.164-39.328-17.148-51.355 11.516-11.504 36.652 3.4258 48.723 14.617l-4.8945 4.8945c-8.3086-7.3516-24.059-15.512-31.941-7.6289-8.3164 8.3164 0.52344 24.996 10.129 34.602 8.6484 8.6523 26.078 18.66 34.602 10.129 7.7188-7.7188 0.003907-23.312-7.6289-31.938l4.8984-4.8984c11.156 12.027 26.141 37.195 14.617 48.723z"/>
<text x="0.0" y="117.5" font-size="5.0" font-weight="bold" font-family="Arbeit Regular, Helvetica, Arial-Unicode, Arial, Sans-serif" fill="#000000">Created by Manda</text><text x="0.0" y="122.5" font-size="5.0" font-weight="bold" font-family="Arbeit Regular, Helvetica, Arial-Unicode, Arial, Sans-serif" fill="#000000">from Noun Project</text></svg>